<?xml version="1.0" encoding="utf-8"?>
<!-- Generator: Adobe Illustrator 22.1.0, SVG Export Plug-In . SVG Version: 6.00 Build 0)  -->
<svg version="1.1" id="Layer_1" xmlns:sketch="http://www.bohemiancoding.com/sketch/ns"
	 xmlns="http://www.w3.org/2000/svg" xmlns:xlink="http://www.w3.org/1999/xlink" x="0px" y="0px" viewBox="0 0 57 58"
	 style="enable-background:new 0 0 57 58;" xml:space="preserve">
<style type="text/css">
	.st0{fill:#FFFFFF;}
</style>
<title>1181-dog@2x</title>
<desc>Created with Sketch.</desc>
<g id="Page-1" sketch:type="MSPage">
	<g id="Glyphish-8-Icons" transform="translate(-20.000000, -787.000000)" sketch:type="MSArtboardGroup">
		<g id="_x31_181-dog_x40_2x" transform="translate(20.036996, 787.860499)" sketch:type="MSLayerGroup">
			<g id="_x31_181-dog_x40_2x.png" sketch:type="MSShapeGroup">
				<path id="Shape" class="st0" d="M35,18c-1.7,0-3,1.3-3,3c0,1.7,1.3,3,3,3c1.6,0,3-1.3,3-3C38,19.3,36.6,18,35,18L35,18z M21,18
					c-1.6,0-3,1.3-3,3c0,1.7,1.3,3,3,3c1.7,0,3-1.3,3-3C24,19.3,22.6,18,21,18L21,18z M50.6,1.2c-3.3-2.5-8.6-0.7-12,1.7
					c-0.2-0.1-0.4-0.1-0.6-0.2C35.5,2.2,31.7,2,28,2s-7.5,0.3-10,0.8c-0.2,0-0.4,0.1-0.7,0.2C13.9,0.5,8.7-1.3,5.4,1.2
					C0.7,4.7-0.4,9.3,0.1,12.6c0.3,2.1,1.3,3.6,2.5,4C3.5,16.9,4.3,17,5,17c1.9,0,3.4-0.9,4.7-2.5L8,40.9c0,3.8,2.6,7.7,6.1,8.8
					C14.6,53.2,18.7,56,28,56c9.4,0,13.5-2.8,13.9-6.3c3.5-1.1,6.1-5.2,6.1-9l-1.8-26.2c1.3,1.6,2.8,2.5,4.7,2.5
					c0.7,0,1.5-0.1,2.4-0.4c1.2-0.4,2.2-1.9,2.5-4C56.4,9.3,55.3,4.7,50.6,1.2L50.6,1.2z M3.3,14.7c-0.3-0.1-0.9-0.9-1.2-2.4
					C1.7,9.6,2.6,5.8,6.6,2.8c1.9-1.4,5.4-0.7,8.3,0.9C11.9,5,10.2,7.2,10,10.3C8,14.6,6.2,15.6,3.3,14.7L3.3,14.7z M28,54
					c-7.5,0-11.1-1.7-11.8-4H17c5,0,5-4,10.9-4C28,46,28,46,28,46s0.1,0,0.1-0.1C34,46.1,34,50,39,50h0.8C39.1,52.3,35.5,54,28,54
					L28,54z M40,48h-1c-1.7,0-2.5-0.6-3.8-1.5c-1-0.7-2.2-1.6-3.9-2.1c2.9-1.6,6.7-4.3,6.7-7.4c0-3.9-4.5-7-10-7s-10,3.1-10,7
					c0,3,3.7,5.7,6.6,7.3c-1.8,0.5-2.9,1.4-3.9,2.1c-1.2,0.9-2,1.5-3.8,1.5h-1c-2.8,0-6-3-6-7l2-30.1c0,0,0-0.1,0-0.1
					c0-1.2,0-4.8,6.4-6.1C20.6,4.3,24.2,4,28,4s7.4,0.3,9.6,0.7c2.4,0.5,6.4,2,6.4,6.6c0,0,0,0.1,0,0.1l2,29.3C46,44,43.3,48,40,48
					L40,48z M53.9,12.3c-0.2,1.5-0.8,2.3-1.2,2.4c-2.9,1-4.8-0.1-6.8-4.5c-0.3-2.9-2.1-5.1-4.9-6.5c2.9-1.7,6.5-2.4,8.4-0.9
					C53.4,5.8,54.3,9.6,53.9,12.3L53.9,12.3z"/>
			</g>
		</g>
	</g>
</g>
</svg>
