<?xml version="1.0" encoding="utf-8"?>
<!-- Generator: Adobe Illustrator 22.1.0, SVG Export Plug-In . SVG Version: 6.00 Build 0)  -->
<svg version="1.1" id="Layer_1" xmlns:sketch="http://www.bohemiancoding.com/sketch/ns"
	 xmlns="http://www.w3.org/2000/svg" xmlns:xlink="http://www.w3.org/1999/xlink" x="0px" y="0px" viewBox="0 0 57 54"
	 style="enable-background:new 0 0 57 54;" xml:space="preserve">
<style type="text/css">
	.st0{fill:#FFFFFF;}
</style>
<title>1182-cat@2x</title>
<desc>Created with Sketch.</desc>
<g id="Page-1" sketch:type="MSPage">
	<g id="Glyphish-8-Icons" transform="translate(-116.000000, -789.000000)" sketch:type="MSArtboardGroup">
		<g id="_x31_182-cat_x40_2x" transform="translate(116.036996, 789.860499)" sketch:type="MSLayerGroup">
			<g id="_x31_182-cat_x40_2x.png" sketch:type="MSShapeGroup">
				<path id="Shape" class="st0" d="M56,25c0-0.6-0.4-1-1-1c0,0-0.1,0-0.1,0l0,0l-3.2,0.4c-0.2-1.4-0.5-2.7-1-4c0,0,0-0.1,0-0.1
					C52,14.8,54.7,4,53.8,2c-0.2-0.5-0.8-1.2-2.1-1.6c-3.7-1.1-9,0.1-17,4.6c-2.1-0.6-4.4-1-6.7-1s-4.5,0.3-6.7,1
					c-8-4.5-13.3-5.7-17-4.6C2.9,0.8,2.4,1.5,2.2,2C1.3,4,4,14.8,5.2,20.2c0,0,0,0.1,0,0.1c-0.4,1.3-0.8,2.7-1,4L1.1,24l0,0
					c0,0-0.1,0-0.1,0c-0.6,0-1,0.4-1,1c0,0.5,0.4,0.9,0.9,1l0,0l3.2,0.4C4,26.9,4,27.4,4,28c0,0.2,0,0.4,0,0.6l-0.9-0.1l0,0
					c0,0-0.1,0-0.1,0c-0.6,0-1,0.4-1,1c0,0.5,0.4,0.9,0.9,1l0,0l1.3,0.1C5.5,42.6,15.6,52,28,52s22.5-9.4,23.9-21.4l1.3-0.1l0,0
					c0.5-0.1,0.9-0.5,0.9-1c0-0.6-0.4-1-1-1c0,0-0.1,0-0.1,0l0,0L52,28.6c0-0.2,0-0.4,0-0.6c0-0.6,0-1.1-0.1-1.7l3.2-0.4l0,0
					C55.6,25.9,56,25.5,56,25L56,25z M50.9,2.2c0.7,0.2,1,0.4,1,0.5c0.4,1.1-0.9,7.2-2.6,14.4c-2.6-5.1-6.9-9.1-12.2-11.3
					C43.6,2.5,48,1.4,50.9,2.2L50.9,2.2z M4,2.8c0-0.1,0.3-0.3,1-0.5C8,1.4,12.4,2.5,18.8,5.8c-5.3,2.2-9.6,6.3-12.2,11.3
					C4.9,9.9,3.7,3.9,4,2.8L4,2.8z M50,28.8L36.9,30l0,0c-0.5,0.1-0.9,0.5-0.9,1c0,0.6,0.4,1,1,1c0,0,0.1,0,0.1,0l0,0l12.7-1.2
					C48.4,41.6,39.2,50,28,50S7.6,41.6,6.2,30.8L18.9,32l0,0c0,0,0.1,0,0.1,0c0.6,0,1-0.4,1-1c0-0.5-0.4-0.9-0.9-1l0,0L6,28.8
					c0-0.3,0-0.5,0-0.8c0-0.5,0-1,0.1-1.4L18.9,28l0,0c0,0,0.1,0,0.1,0c0.6,0,1-0.4,1-1c0-0.5-0.4-0.9-0.9-1l0,0L6.3,24.6
					C7.9,14.1,17,6,28,6s20.1,8.1,21.7,18.6L36.9,26l0,0c-0.5,0.1-0.9,0.5-0.9,1c0,0.6,0.4,1,1,1c0,0,0.1,0,0.1,0l0,0l12.8-1.4
					C50,27,50,27.5,50,28C50,28.3,50,28.5,50,28.8L50,28.8z M24,19c0-1.7-1.3-3-3-3s-3,1.3-3,3c0,1.7,1.3,3,3,3S24,20.7,24,19L24,19
					z M38,19c0-1.7-1.3-3-3-3s-3,1.3-3,3c0,1.7,1.3,3,3,3S38,20.7,38,19L38,19z M29,35.4c1.2-0.8,3-2.4,3-4.4c0-2,0-4-4-4s-4,2-4,4
					c0,2,1.8,3.6,3,4.4c-0.2,1.2-1.1,4.6-7,4.6c-4.1,0-5-4-5-4.2c-0.1-0.5-0.6-0.9-1.2-0.8c-0.5,0.1-0.9,0.6-0.8,1.2
					c0.4,2,2.4,5.8,7,5.8c4.7,0,6.9-1.9,8-3.8c1.1,1.8,3.3,3.8,8,3.8c4.6,0,6.6-3.8,7-5.8c0.1-0.5-0.2-1.1-0.8-1.2
					c-0.5-0.1-1.1,0.2-1.2,0.8c0,0.2-0.9,4.2-5,4.2C30.1,40,29.2,36.6,29,35.4L29,35.4z"/>
			</g>
		</g>
	</g>
</g>
</svg>
