<?xml version="1.0" encoding="utf-8"?>
<!-- Generator: Adobe Illustrator 22.1.0, SVG Export Plug-In . SVG Version: 6.00 Build 0)  -->
<svg version="1.1" id="Layer_1" xmlns:sketch="http://www.bohemiancoding.com/sketch/ns"
	 xmlns="http://www.w3.org/2000/svg" xmlns:xlink="http://www.w3.org/1999/xlink" x="0px" y="0px" viewBox="0 0 58 58"
	 style="enable-background:new 0 0 58 58;" xml:space="preserve">
<style type="text/css">
	.st0{fill:#FFFFFF;}
</style>
<title>1183-pig@2x</title>
<desc>Created with Sketch.</desc>
<g id="Page-1" sketch:type="MSPage">
	<g id="Glyphish-8-Icons" transform="translate(-212.000000, -787.000000)" sketch:type="MSArtboardGroup">
		<g id="_x31_183-pig_x40_2x" transform="translate(212.036996, 787.860499)" sketch:type="MSLayerGroup">
			<g id="_x31_183-pig_x40_2x.png" sketch:type="MSShapeGroup">
				<path id="Shape" class="st0" d="M24,34c-1.1,0-2,0.9-2,2v4c0,1.1,0.9,2,2,2s2-0.9,2-2v-4C26,34.9,25.1,34,24,34L24,34z M35,24
					c1.7,0,3-1.3,3-3s-1.3-3-3-3s-3,1.3-3,3S33.3,24,35,24L35,24z M21,24c1.7,0,3-1.3,3-3s-1.3-3-3-3s-3,1.3-3,3S19.3,24,21,24
					L21,24z M56,1V0h-1c-7.5,0-12.8,2.5-14.9,7C36.5,5.1,32.4,4,28,4s-8.5,1.1-12.1,3C13.8,2.5,8.5,0,1,0H0v1
					c0,8.3,1.7,13.6,5.3,16.3C3.2,21.1,2,25.4,2,30c0,14.4,11.6,26,26,26s26-11.6,26-26c0-4.6-1.2-8.9-3.3-12.7
					C54.3,14.6,56,9.3,56,1L56,1z M2,2c6.3,0.2,10.5,2.3,12.2,6c-3.1,2-5.8,4.5-7.8,7.6C3.6,13.3,2.1,8.9,2,2L2,2z M52,30
					c0,13.3-10.7,24-24,24S4,43.3,4,30S14.7,6,28,6S52,16.7,52,30L52,30z M49.6,15.6c-2-3.1-4.7-5.6-7.8-7.6c1.7-3.7,5.9-5.8,12.2-6
					C53.9,8.9,52.4,13.3,49.6,15.6L49.6,15.6z M28,26c-6.6,0-12,5.4-12,12c0,6.6,5.4,12,12,12s12-5.4,12-12C40,31.4,34.6,26,28,26
					L28,26z M28,48c-5.5,0-10-4.5-10-10s4.5-10,10-10s10,4.5,10,10S33.5,48,28,48L28,48z M32,34c-1.1,0-2,0.9-2,2v4c0,1.1,0.9,2,2,2
					s2-0.9,2-2v-4C34,34.9,33.1,34,32,34L32,34z"/>
			</g>
		</g>
	</g>
</g>
</svg>
