<?xml version="1.0" encoding="utf-8"?>
<!-- Generator: Adobe Illustrator 22.1.0, SVG Export Plug-In . SVG Version: 6.00 Build 0)  -->
<svg version="1.1" id="Layer_1" xmlns:sketch="http://www.bohemiancoding.com/sketch/ns"
	 xmlns="http://www.w3.org/2000/svg" xmlns:xlink="http://www.w3.org/1999/xlink" x="0px" y="0px" viewBox="0 0 58 58"
	 style="enable-background:new 0 0 58 58;" xml:space="preserve">
<style type="text/css">
	.st0{fill:#FFFFFF;}
</style>
<title>1184-cow@2x</title>
<desc>Created with Sketch.</desc>
<g id="Page-1" sketch:type="MSPage">
	<g id="Glyphish-8-Icons" transform="translate(-308.000000, -787.000000)" sketch:type="MSArtboardGroup">
		<g id="_x31_184-cow_x40_2x" transform="translate(308.036996, 787.860499)" sketch:type="MSLayerGroup">
			<g id="_x31_184-cow_x40_2x.png" sketch:type="MSShapeGroup">
				<path id="Shape" class="st0" d="M56,1V0h-1c-7.3,0-12.5,2.4-14.7,6.6c-0.3-1.8-0.8-3.8-1.2-5.1c-0.3-1-0.9-1.5-1.8-1.5
					c-1.4,0-3.7,1.4-7.1,4.1C29.5,4,28.7,4,28,4s-1.5,0-2.2,0.1C22.4,1.4,20.1,0,18.7,0c-0.9,0-1.4,0.5-1.8,1.5
					c-0.4,1.3-0.9,3.3-1.2,5.1C13.5,2.4,8.3,0,1,0H0v1c0,9.3,2.2,15,6.8,17.3C5,21.9,4,26,4,30c0,14.4,4,26,24,26s24-11.6,24-26
					c0-4-1-8.1-2.8-11.7C53.8,16,56,10.3,56,1L56,1z M2,2c6.6,0.2,10.9,2.6,12.4,6.6c-2.6,1.9-4.9,4.7-6.7,7.8C4,14.6,2.2,9.9,2,2
					L2,2z M6.4,36.7C6.1,34.7,6,32.5,6,30c0-3.3,0.8-6.8,2.2-10.1c1.2,1.3,2,2.7,2.4,4.4c1.1,4.1-0.4,8.7-4.1,12.3
					C6.5,36.6,6.4,36.6,6.4,36.7L6.4,36.7z M28,54c-8.6,0-14.5-2.2-17.9-6.8c-0.7-0.9-1.2-1.9-1.7-2.9C13.2,40.4,20.1,38,28,38
					c7.9,0,14.9,2.4,19.6,6.3C44.9,50,39.3,54,28,54L28,54z M48.4,42.3C43.3,38.5,36.1,36,28,36c-8,0-15.3,2.4-20.4,6.3
					c-0.3-1-0.6-2.1-0.9-3.3c0.4-0.3,0.8-0.7,1.2-1.1c4-4,5.9-9.2,4.6-14.2c-0.6-2.2-1.8-4.2-3.5-5.8c1.8-3.4,4.3-6.4,7.5-8.4
					c0.5-0.3,0.8-0.8,0.9-1.3c0.5-2.8,1-4.9,1.4-6.1c0,0,0-0.1,0-0.1c0.6,0.1,2,0.7,5.6,3.7c0.4,0.3,0.8,0.4,1.3,0.4
					c0.1,0,0.1,0,0.2,0C26.7,6,27.4,6,28,6s1.3,0,2,0.1c0.1,0,0.1,0,0.2,0c0.5,0,0.9-0.2,1.3-0.4c3.6-2.9,5.1-3.6,5.6-3.7
					c0,0,0,0.1,0,0.1c0.4,1.2,0.9,3.3,1.4,6.1c0.1,0.6,0.4,1,0.9,1.3c1.7,1.1,3.2,2.4,4.5,3.9c-2.3,4.6-2.6,9.6-0.2,13.8
					c1.4,2.5,3.6,4.3,6.3,5.4C49.8,36.1,49.4,39.4,48.4,42.3L48.4,42.3z M50,30c0,0.1,0,0.3,0,0.4c-1.9-1-3.5-2.4-4.6-4.2
					c-1.7-3-1.9-6.7-0.4-10.5c0.1-0.2,0.2-0.3,0.2-0.5C48.3,19.6,50,25.1,50,30L50,30z M48.3,16.5c-1.8-3.2-4.1-5.9-6.7-7.8
					c1.5-4,5.8-6.4,12.4-6.6C53.8,9.9,52,14.6,48.3,16.5L48.3,16.5z M22,42c-1.1,0-2,0.9-2,2v4c0,1.1,0.9,2,2,2s2-0.9,2-2v-4
					C24,42.9,23.1,42,22,42L22,42z M21,18c-1.7,0-3,1.3-3,3s1.3,3,3,3s3-1.3,3-3S22.7,18,21,18L21,18z M34,50c1.1,0,2-0.9,2-2v-4
					c0-1.1-0.9-2-2-2s-2,0.9-2,2v4C32,49.1,32.9,50,34,50L34,50z M35,18c-1.7,0-3,1.3-3,3s1.3,3,3,3s3-1.3,3-3S36.7,18,35,18L35,18z
					"/>
			</g>
		</g>
	</g>
</g>
</svg>
