<?xml version="1.0" encoding="utf-8"?>
<!-- Generator: Adobe Illustrator 22.1.0, SVG Export Plug-In . SVG Version: 6.00 Build 0)  -->
<svg version="1.1" id="Layer_1" xmlns:sketch="http://www.bohemiancoding.com/sketch/ns"
	 xmlns="http://www.w3.org/2000/svg" xmlns:xlink="http://www.w3.org/1999/xlink" x="0px" y="0px" viewBox="0 0 42 58"
	 style="enable-background:new 0 0 42 58;" xml:space="preserve">
<style type="text/css">
	.st0{fill:#FFFFFF;}
</style>
<title>1185-horse@2x</title>
<desc>Created with Sketch.</desc>
<g id="Page-1" sketch:type="MSPage">
	<g id="Glyphish-8-Icons" transform="translate(-412.000000, -787.000000)" sketch:type="MSArtboardGroup">
		<g id="_x31_185-horse_x40_2x" transform="translate(412.036996, 787.860499)" sketch:type="MSLayerGroup">
			<g id="_x31_185-horse_x40_2x.png" sketch:type="MSShapeGroup">
				<path id="Shape" class="st0" d="M37.1,18.4c3.3-3.3,3.8-9.1,1.5-17.4L38.3,0l-0.9,0.2c-4.7,1.2-8.1,3.3-10.2,5.9
					C26.3,3.8,25,2,25,2l-1.5,1.5C22.5,1.5,21,0,21,0c-1,1-2,5-2,5c-1-3-3-5-3-5c-1.4,2.3-2.3,4.6-3,6.4C11,3.7,7.5,1.5,2.6,0.2
					L1.7,0L1.4,0.9C-0.9,9.3-0.4,15,2.9,18.4C1.3,26,0,38.1,0,43c0,6,9,13,20,13s20-7,20-13C40,38.1,38.7,26,37.1,18.4L37.1,18.4z
					 M37,2.4c1.6,6.2,1.4,10.7-0.4,13.5c-0.2-0.7-0.4-1.4-0.5-1.9c-0.9-2.8-4.5-4.3-8.1-5.1c0-0.1,0-0.1,0-0.2
					C29.3,6,32.4,3.8,37,2.4L37,2.4z M3,2.4c4.7,1.4,7.8,3.7,9.1,6.5C8.6,9.7,4.9,11.2,4,14c-0.2,0.5-0.4,1.2-0.5,1.9
					C1.6,13.1,1.5,8.6,3,2.4L3,2.4z M5.9,14.6C7.1,11.2,15.9,10,20,10c4.1,0,12.9,1.1,14.1,4.6c1.7,5.2,3.5,18.9,3.8,26
					C33.1,37.8,26.8,36,20,36S6.9,37.8,2.1,40.7C2.4,33.6,4.2,19.8,5.9,14.6L5.9,14.6z M20,54C9.6,54,2.1,47.5,2,43.1
					C6.7,40,13,38,20,38s13.3,1.9,18,5.1C37.9,47.5,30.4,54,20,54L20,54z M27,24c1.7,0,3-1.3,3-3c0-1.7-1.3-3-3-3s-3,1.3-3,3
					C24,22.7,25.3,24,27,24L27,24z M14,42c-1.1,0-2,0.9-2,2v4c0,1.1,0.9,2,2,2s2-0.9,2-2v-4C16,42.9,15.1,42,14,42L14,42z M13,18
					c-1.7,0-3,1.3-3,3c0,1.7,1.3,3,3,3s3-1.3,3-3C16,19.4,14.7,18,13,18L13,18z M26,42c-1.1,0-2,0.9-2,2v4c0,1.1,0.9,2,2,2
					s2-0.9,2-2v-4C28,42.9,27.1,42,26,42L26,42z"/>
			</g>
		</g>
	</g>
</g>
</svg>
