<?xml version="1.0" encoding="utf-8"?>
<!-- Generator: Adobe Illustrator 22.1.0, SVG Export Plug-In . SVG Version: 6.00 Build 0)  -->
<svg version="1.1" id="Layer_1" xmlns:sketch="http://www.bohemiancoding.com/sketch/ns"
	 xmlns="http://www.w3.org/2000/svg" xmlns:xlink="http://www.w3.org/1999/xlink" x="0px" y="0px" viewBox="0 0 46 58"
	 style="enable-background:new 0 0 46 58;" xml:space="preserve">
<style type="text/css">
	.st0{fill:#FFFFFF;}
</style>
<title>1186-chicken@2x</title>
<desc>Created with Sketch.</desc>
<g id="Page-1" sketch:type="MSPage">
	<g id="Glyphish-8-Icons" transform="translate(-506.000000, -787.000000)" sketch:type="MSArtboardGroup">
		<g id="_x31_186-chicken_x40_2x" transform="translate(506.036996, 787.860499)" sketch:type="MSLayerGroup">
			<g id="_x31_186-chicken_x40_2x.png" sketch:type="MSShapeGroup">
				<path id="Shape" class="st0" d="M33.3,8.4c0.1-0.1,0.2-0.2,0.2-0.2c1.2-2,0.5-4.5-1.5-5.7c-1.6-0.9-3.5-0.6-4.8,0.5
					c-1-1.8-3-3-5.2-3c-2.2,0-4.1,1.2-5.1,3c-1.3-1.1-3.2-1.4-4.8-0.5c-2,1.1-2.6,3.7-1.5,5.7c0,0,0,0,0.1,0.1C2.5,12.1,0,20.1,0,26
					c0,13.1,8.4,23.1,17.8,25.4c1.3,1.4,2.6,2.9,4.2,4.6c1.5-1.7,2.9-3.2,4.2-4.6C35.6,49.1,44,39.1,44,26
					C44,20.2,41.1,12.4,33.3,8.4L33.3,8.4z M27.9,5.5C28,5.3,28,5.2,28.1,5c0.6-0.9,1.9-1.3,2.8-0.7c1,0.5,1.3,1.8,0.8,2.8
					c-1,1.3-2.4,2.6-3,2.9c-0.4,0-0.7-0.1-0.9-0.3c-0.2-0.1-0.3-0.2-0.4-0.3C27.8,7.6,28,6.1,28,6.1C28,5.9,28,5.7,27.9,5.5
					L27.9,5.5z M22,2c2.2,0,3.9,1.8,4,3.9c-0.4,2.8-1.3,5.9-2,6.5c-0.7,0.3-1.4,0.5-2,0.5s-1.3-0.2-2-0.5c-0.6-0.6-1.5-3.6-2-6.5
					C18.1,3.8,19.8,2,22,2L22,2z M13.1,4.3c1-0.5,2.2-0.2,2.8,0.7C16,5.2,16,5.3,16.1,5.4C16,5.7,16,5.9,16,6.1c0,0,0.2,1.5,0.6,3.2
					c-0.1,0.1-0.3,0.2-0.4,0.3c-0.3,0.2-0.6,0.2-0.9,0.3c-0.6-0.3-1.9-1.6-3-2.9C11.8,6.1,12.2,4.9,13.1,4.3L13.1,4.3z M25,49.8
					c-0.9,1-1.9,2.1-3,3.2c-1.1-1.2-2.1-2.3-3-3.2c-4.2-4.5-7.2-7.7-7-9.4c0.1-0.6,0.7-1.4,1.9-2.3c4.9-3.6,7.6-4.1,8.1-4.1
					c0.4,0.1,3.1,0.5,8.1,4.1c1.2,0.9,1.9,1.7,1.9,2.3C32.2,42,29.2,45.3,25,49.8L25,49.8z M35.6,43.3c-1.9,2.2-4.2,3.8-6.5,5
					c5.4-5.9,6.7-8.4,2.2-11.8C25.1,32,22,32,22,32s-3.1,0-9.2,4.5c-4.6,3.3-3.2,5.8,2.2,11.8c-2.4-1.1-4.6-2.8-6.6-5
					C4.3,38.7,2,32.5,2,26c0-2.4,0.6-12.1,10-16.2v0c1,1.1,2.3,2.2,3.2,2.2c0.8,0,1.5-0.2,2.1-0.6c0.5,1.3,1,2.4,1.7,2.8
					c1,0.5,2,0.8,3,0.8s2-0.3,3-0.8c0.7-0.4,1.3-1.5,1.7-2.8c0,0,0,0,0,0c0.6,0.3,1.3,0.5,2.1,0.6c0.9,0,2.2-1.1,3.2-2.2V10h-0.1
					C39.7,13.6,42,21.4,42,26C42,32.5,39.7,38.7,35.6,43.3L35.6,43.3z M29,18c-1.7,0-3,1.3-3,3c0,1.7,1.3,3,3,3s3-1.3,3-3
					C32,19.3,30.7,18,29,18L29,18z M15,18c-1.7,0-3,1.3-3,3c0,1.7,1.3,3,3,3s3-1.3,3-3C18,19.3,16.7,18,15,18L15,18z"/>
			</g>
		</g>
	</g>
</g>
</svg>
