<?xml version="1.0" encoding="utf-8"?>
<!-- Generator: Adobe Illustrator 22.1.0, SVG Export Plug-In . SVG Version: 6.00 Build 0)  -->
<svg version="1.1" id="Layer_1" xmlns:sketch="http://www.bohemiancoding.com/sketch/ns"
	 xmlns="http://www.w3.org/2000/svg" xmlns:xlink="http://www.w3.org/1999/xlink" x="0px" y="0px" viewBox="0 0 58 58"
	 style="enable-background:new 0 0 58 58;" xml:space="preserve">
<style type="text/css">
	.st0{fill:#FFFFFF;}
</style>
<title>1187-elephant@2x</title>
<desc>Created with Sketch.</desc>
<g id="Page-1" sketch:type="MSPage">
	<g id="Glyphish-8-Icons" transform="translate(-596.000000, -787.000000)" sketch:type="MSArtboardGroup">
		<g id="_x31_187-elephant_x40_2x" transform="translate(596.036996, 787.860499)" sketch:type="MSLayerGroup">
			<g id="_x31_187-elephant_x40_2x.png" sketch:type="MSShapeGroup">
				<path id="Shape" class="st0" d="M35,18c-1.7,0-3,1.3-3,3s1.3,3,3,3c1.7,0,3-1.3,3-3S36.7,18,35,18L35,18z M21,18
					c-1.7,0-3,1.3-3,3s1.3,3,3,3c1.7,0,3-1.3,3-3S22.7,18,21,18L21,18z M55.3,18.3c0.3-2.4,0.7-4.4,0.7-7.2c0-4-1.1-6.7-3.4-8.1
					c-2.6-1.6-6.4-1.2-11.1,1.2c0,0-0.1,0.1-0.1,0.1C38.3,1.7,34,0,28,0c-6.2,0-10.5,1.7-13.6,4.1C9.7,1.8,5.9,1.4,3.4,3
					C1.1,4.4,0,7.1,0,11.1c0,2.8,0.4,4.8,0.7,7.2C1.3,22.9,2,27.2,0,33.7C0,34,0,34.3,0.2,34.6C0.4,34.8,0.7,35,1,35
					c0.2,0,5-0.1,9.7-3.6c0.7,1.5,1.5,3,2.4,4.3c-0.2,0.4-0.4,1-0.6,1.6l-2.4,8.6c-0.4,1.5,0.9,2.1,1.3,2.2c0.1,0,0.2,0-0.1-0.1
					c0.6,0.1,1.2,0,1.6-0.5c0.1-0.1,3.5-3.2,6.1-6.1c0.9,0.5,1.8,1,2.7,1.4c-0.1,2-0.4,4.1-1,5.9c-0.9,2.6-0.9,4.3,0,5.5
					c1.1,1.6,2.9,1.8,5.4,1.8h0h4h0c2.4,0,4.2-0.2,5.4-1.8c0.9-1.2,0.9-2.9,0-5.5c-0.6-1.8-1-3.9-1-5.9c1-0.4,1.9-0.9,2.7-1.4
					c2.6,2.9,5.9,6,6.1,6.1c0.4,0.4,1.1,0.6,1.6,0.5C44.5,48,44.5,48,44.6,48c0.4-0.1,1.7-0.7,1.3-2.2l-2.4-8.6
					c-0.2-0.6-0.4-1.2-0.6-1.6c0.9-1.3,1.7-2.7,2.4-4.2C50,34.9,54.8,35,55,35c0.3,0,0.6-0.2,0.8-0.4s0.2-0.6,0.2-0.9
					C54,27.2,54.7,22.9,55.3,18.3L55.3,18.3z M2.4,32.8C3.9,26.7,3.3,22.3,2.7,18C2.3,15.7,2,13.8,2,11.1C2,8.9,2.4,6,4.4,4.7
					c1.8-1.1,4.7-0.8,8.3,0.9C9.2,9.3,8,14.3,8,18.1c0,4,0.7,7.8,1.9,11.3C7,31.7,4,32.5,2.4,32.8L2.4,32.8z M17.9,39.5
					c-0.9,1.1-2.6,2.9-5.4,5.6l2.1-7.3c0.7-2.2,1.7-2.7,2.5-2.8c0,0,0,0,0,0c0.2,0,0.3,0,0.5,0c0.2,0,0.3,0.1,0.5,0.1
					c1,0.4,1.1,1.9,1,1.7C19,37.5,18.9,38.4,17.9,39.5L17.9,39.5z M20.2,39.8c0.5-0.8,0.7-1.6,0.8-2.2c0.4,0.9,0.6,1.9,0.7,3
					C21.2,40.4,20.7,40.1,20.2,39.8L20.2,39.8z M34.4,40.6c0.1-1.1,0.3-2.1,0.7-3c0.1,0.6,0.3,1.4,0.8,2.2
					C35.4,40.1,34.9,40.3,34.4,40.6L34.4,40.6z M43.5,45.1c-2.8-2.7-4.5-4.5-5.4-5.6c-1-1.1-1.1-2-1-2.6c0,0.2,0-1.3,1-1.7
					c0.1-0.1,0.3-0.1,0.5-0.1c0.1,0,0.3,0,0.4,0c0,0,0,0,0,0c0.8,0,1.8,0.5,2.5,2.8L43.5,45.1L43.5,45.1z M41.7,34
					c-0.9-0.8-1.8-1-2.6-0.9c0,0,0,0-0.1,0c-2.2,0-3.9,0.8-5,2.3c-2.9,4-1.3,11.7-0.5,14c0.6,1.9,0.7,3.1,0.3,3.7
					c-0.5,0.7-1.3,1-3.7,1h-4c-2.5,0-3.3-0.3-3.7-1c-0.2-0.2-0.2-0.6-0.2-1h5c0.6,0,1-0.4,1-1c0-0.6-0.4-1-1-1h-4.7
					c0.1-0.2,0.1-0.4,0.2-0.7c0.1-0.3,0.2-0.8,0.4-1.3c0,0,0.1,0,0.1,0h2c0.6,0,1-0.4,1-1s-0.4-1-1-1h-1.7c0.5-3.3,0.7-7.8-1.3-10.7
					c-1.1-1.6-2.8-2.3-5-2.3c0,0-0.1,0-0.1,0c-0.7,0-1.7,0.2-2.5,0.9C11.5,29.5,10,23.8,10,18.1C10,15.5,10.9,2,28,2
					c14.2,0,18,10.6,18,16.1C46,24.1,44.5,29.6,41.7,34L41.7,34z M53.7,32.8c-1.7-0.3-4.7-1.1-7.6-3.4C47.3,26,48,22.1,48,18.1
					c0-3.9-1.4-8.7-5-12.5c3.8-1.8,6.7-2.1,8.6-1c2,1.3,2.4,4.2,2.4,6.4c0,2.7-0.3,4.6-0.7,6.9C52.7,22.3,52.1,26.7,53.7,32.8
					L53.7,32.8z"/>
			</g>
		</g>
	</g>
</g>
</svg>
